<svg width="39" height="39" viewBox="0 0 39 39" fill="none" xmlns="http://www.w3.org/2000/svg">
<rect x="0.00195312" width="38.6356" height="38.6356" rx="19.3178" fill="#FFAE00" fill-opacity="0.15"/>
<path d="M25.5609 14.3962C23.9033 12.706 21.6703 11.7427 19.3334 11.7099C16.9964 11.677 14.7385 12.5771 13.0364 14.22C11.3343 15.863 10.3213 18.1202 10.2112 20.515C10.1011 22.9099 10.9026 25.2549 12.4465 27.0548L12.4532 27.0625C12.4656 27.076 12.4772 27.0899 12.4908 27.1029C12.5185 27.1353 12.5501 27.1719 12.5872 27.21C12.733 27.3689 12.9091 27.4952 13.1046 27.5811C13.3001 27.6669 13.5108 27.7105 13.7235 27.7089C13.9362 27.7074 14.1463 27.6609 14.3406 27.5723C14.5349 27.4836 14.7094 27.3548 14.8529 27.1938C15.4053 26.578 16.0763 26.0863 16.8234 25.7501C17.5704 25.4138 18.3774 25.2402 19.1932 25.2402C20.0091 25.2402 20.816 25.4138 21.5631 25.7501C22.3102 26.0863 22.9812 26.578 23.5336 27.1938C23.6782 27.3556 23.854 27.4849 24.0499 27.5734C24.2457 27.6618 24.4573 27.7076 24.6714 27.7079C24.8854 27.7081 25.0971 27.6627 25.2931 27.5746C25.4891 27.4865 25.6652 27.3576 25.8101 27.1961L25.9306 27.0614L25.9374 27.0537C27.4586 25.2916 28.2668 23.0004 28.197 20.6478C28.1272 18.2952 27.1848 16.0586 25.562 14.3946L25.5609 14.3962ZM18.5904 14.7716C18.5904 14.6082 18.6537 14.4515 18.7663 14.3359C18.8789 14.2204 19.0317 14.1555 19.191 14.1555C19.3503 14.1555 19.503 14.2204 19.6157 14.3359C19.7283 14.4515 19.7916 14.6082 19.7916 14.7716V16.0038C19.7916 16.1672 19.7283 16.3239 19.6157 16.4394C19.503 16.5549 19.3503 16.6198 19.191 16.6198C19.0317 16.6198 18.8789 16.5549 18.7663 16.4394C18.6537 16.3239 18.5904 16.1672 18.5904 16.0038V14.7716ZM14.3863 21.5485H13.1852C13.0259 21.5485 12.8731 21.4836 12.7605 21.3681C12.6479 21.2526 12.5846 21.0958 12.5846 20.9325C12.5846 20.7691 12.6479 20.6124 12.7605 20.4968C12.8731 20.3813 13.0259 20.3164 13.1852 20.3164H14.3863C14.5456 20.3164 14.6984 20.3813 14.811 20.4968C14.9236 20.6124 14.9869 20.7691 14.9869 20.9325C14.9869 21.0958 14.9236 21.2526 14.811 21.3681C14.6984 21.4836 14.5456 21.5485 14.3863 21.5485ZM16.2181 17.8828C16.1055 17.9983 15.9528 18.0631 15.7936 18.0631C15.6344 18.0631 15.4817 17.9983 15.369 17.8828L14.5196 17.0118C14.407 16.8963 14.3437 16.7396 14.3437 16.5761C14.3437 16.4127 14.407 16.256 14.5196 16.1405C14.6322 16.0249 14.785 15.96 14.9443 15.96C15.1036 15.96 15.2564 16.0249 15.369 16.1405L16.2181 17.0118C16.3307 17.1274 16.3939 17.284 16.3939 17.4473C16.3939 17.6107 16.3307 17.7673 16.2181 17.8828ZM21.8223 18.7723L20.0393 21.6795C19.9664 21.7832 19.8776 21.8742 19.7766 21.949C19.5325 22.1236 19.2311 22.1925 18.9379 22.1407C18.6446 22.0888 18.3832 21.9204 18.2102 21.672C18.0372 21.4236 17.9668 21.1153 18.014 20.8139C18.0613 20.5125 18.2226 20.2424 18.4628 20.0622L21.2968 18.2332C21.3612 18.1872 21.4378 18.1625 21.5164 18.1625C21.5949 18.1625 21.6715 18.1872 21.7359 18.2332C21.8169 18.2931 21.8714 18.3835 21.8875 18.4845C21.9037 18.5855 21.8802 18.689 21.8223 18.7723ZM23.0129 17.8828C22.8994 17.9935 22.7482 18.0543 22.5916 18.0522C22.435 18.0502 22.2853 17.9854 22.1746 17.8718C22.0638 17.7582 22.0007 17.6047 21.9987 17.4441C21.9967 17.2834 22.056 17.1283 22.1639 17.0118L23.0129 16.1405C23.1256 16.0249 23.2784 15.96 23.4377 15.96C23.597 15.96 23.7497 16.0249 23.8624 16.1405C23.975 16.256 24.0383 16.4127 24.0383 16.5761C24.0383 16.7396 23.975 16.8963 23.8624 17.0118L23.0129 17.8828ZM25.1968 21.5485H23.9956C23.8363 21.5485 23.6836 21.4836 23.571 21.3681C23.4583 21.2526 23.3951 21.0958 23.3951 20.9325C23.3951 20.7691 23.4583 20.6124 23.571 20.4968C23.6836 20.3813 23.8363 20.3164 23.9956 20.3164H25.1968C25.3561 20.3164 25.5088 20.3813 25.6215 20.4968C25.7341 20.6124 25.7974 20.7691 25.7974 20.9325C25.7974 21.0958 25.7341 21.2526 25.6215 21.3681C25.5088 21.4836 25.3561 21.5485 25.1968 21.5485Z" fill="#FFAE00"/>
</svg>
