<svg width="39" height="39" viewBox="0 0 39 39" fill="none" xmlns="http://www.w3.org/2000/svg">
<rect x="38.6356" y="38.6357" width="38.6356" height="38.6356" rx="19.3178" transform="rotate(180 38.6356 38.6357)" fill="#C100C8" fill-opacity="0.15"/>
<path d="M19.4754 9.70898C13.6768 9.70898 8.97542 14.4109 8.97542 20.209C8.97542 26.0071 13.6768 30.709 19.4754 30.709C25.2749 30.709 29.9754 26.0071 29.9754 20.209C29.9754 14.4109 25.274 9.70898 19.4754 9.70898ZM19.002 13.922C20.6733 13.8079 22.3935 14.2687 23.755 15.6195C25.0028 16.8807 25.9513 18.6388 25.932 20.2862H27.7984L23.9099 24.6423L20.0205 20.2862H22.0444C22.0435 18.7731 21.6708 17.8796 20.4869 16.7087C19.3275 15.5361 18.1533 14.8567 16.1312 14.6873C17.0326 14.2561 18.0061 13.996 19.002 13.922ZM15.0427 15.7766L18.932 20.1326H16.9082C16.9082 21.6458 17.2809 22.5393 18.4639 23.7102C19.6242 24.8828 20.7975 25.5639 22.8197 25.7333C20.4712 26.8462 17.3772 26.9603 15.1984 24.7994C13.9498 23.5381 13.0004 21.7801 13.0205 20.1326H11.1524L15.0427 15.7766Z" fill="#C100C8"/>
</svg>
