<svg width="39" height="39" viewBox="0 0 39 39" fill="none" xmlns="http://www.w3.org/2000/svg">
<rect x="38.6356" y="38.6357" width="38.6356" height="38.6356" rx="19.3178" transform="rotate(180 38.6356 38.6357)" fill="#EFFFED"/>
<path d="M21.1981 21.43C21.1981 20.8505 21.0371 20.7646 20.6722 20.6358L20.1249 20.4426V22.2671H20.4468C20.8546 22.2671 21.1981 21.8915 21.1981 21.43ZM18.515 16.3644H18.1931C17.7745 16.3644 17.4418 16.7401 17.4418 17.2015C17.4418 17.7811 17.6028 17.8669 17.9677 17.9957L18.515 18.1889V16.3644Z" fill="#83AD7D"/>
<path d="M11.1865 26.3143L13.3866 24.1142C13.5476 23.9533 13.7515 23.8781 13.9554 23.8781C14.1593 23.8781 14.3632 23.9533 14.5242 24.1142C14.6739 24.2657 14.7578 24.4701 14.7578 24.683C14.7578 24.896 14.6739 25.1004 14.5242 25.2518L12.3241 27.4519C14.213 29.0617 16.6491 30.0491 19.3214 30.0491C25.2456 30.0491 30.0535 25.2411 30.0535 19.317C30.0535 13.3929 25.2456 8.58489 19.3214 8.58489C13.3973 8.58489 8.58934 13.3929 8.58934 19.317C8.58934 21.9893 9.57669 24.4255 11.1865 26.3143ZM17.4433 19.5102C16.7565 19.2633 15.8335 18.7697 15.8335 17.192C15.8335 15.8505 16.896 14.7451 18.1946 14.7451H18.5165V14.4768C18.5165 14.0368 18.8814 13.6719 19.3214 13.6719C19.7615 13.6719 20.1263 14.0368 20.1263 14.4768V14.7451H20.2122C21.6396 14.7451 22.8094 15.9471 22.8094 17.4281C22.8094 17.8789 22.4445 18.2438 22.0045 18.2438C21.5644 18.2438 21.1996 17.8789 21.1996 17.4389C21.1996 16.8486 20.7595 16.3657 20.2122 16.3657H20.1263V18.7482L21.1996 19.1238C21.8864 19.3707 22.8094 19.8643 22.8094 21.4419C22.8094 22.7835 21.7469 23.8889 20.4483 23.8889H20.1263V24.1464C20.1263 24.5865 19.7615 24.9513 19.3214 24.9513C18.8814 24.9513 18.5165 24.5865 18.5165 24.1464V23.8781H18.4307C17.0033 23.8781 15.8335 22.6761 15.8335 21.1951C15.8335 20.7551 16.1984 20.3902 16.6384 20.3902C17.0784 20.3902 17.4433 20.7551 17.4433 21.1951C17.4433 21.7854 17.8833 22.2683 18.4307 22.2683H18.5165V19.8858L17.4433 19.5102ZM7.84882 30.3603C7.93369 30.558 8.0912 30.7155 8.28884 30.8003C8.38537 30.8346 8.4869 30.8528 8.58934 30.854H12.8822C13.3222 30.854 13.6871 30.4891 13.6871 30.0491C13.6871 29.6091 13.3222 29.2442 12.8822 29.2442H10.5318L12.3241 27.4519C11.9163 27.0978 11.5407 26.7221 11.1865 26.3143L9.39424 28.1066V25.7563C9.39424 25.3162 9.02935 24.9513 8.58934 24.9513C8.14932 24.9513 7.78443 25.3162 7.78443 25.7563V30.0491C7.78443 30.1564 7.80589 30.253 7.84882 30.3603Z" fill="#83AD7D"/>
</svg>
