<svg width="170" height="170" viewBox="0 0 170 170" fill="none" xmlns="http://www.w3.org/2000/svg">
<path d="M28.3333 28.3333H70.8333V70.8333H28.3333V28.3333ZM141.667 28.3333V70.8333H99.1667V28.3333H141.667ZM99.1667 106.25H113.333V92.0833H99.1667V77.9167H113.333V92.0833H127.5V77.9167H141.667V92.0833H127.5V106.25H141.667V127.5H127.5V141.667H113.333V127.5H92.0833V141.667H77.9167V113.333H99.1667V106.25ZM113.333 106.25V127.5H127.5V106.25H113.333ZM28.3333 141.667V99.1667H70.8333V141.667H28.3333ZM42.5 42.5V56.6667H56.6667V42.5H42.5ZM113.333 42.5V56.6667H127.5V42.5H113.333ZM42.5 113.333V127.5H56.6667V113.333H42.5ZM28.3333 77.9167H42.5V92.0833H28.3333V77.9167ZM63.75 77.9167H92.0833V106.25H77.9167V92.0833H63.75V77.9167ZM77.9167 42.5H92.0833V70.8333H77.9167V42.5ZM14.1667 14.1667V42.5H0V14.1667C0 10.4094 1.49256 6.80609 4.14932 4.14932C6.80609 1.49256 10.4094 0 14.1667 0L42.5 0V14.1667H14.1667ZM155.833 0C159.591 0 163.194 1.49256 165.851 4.14932C168.507 6.80609 170 10.4094 170 14.1667V42.5H155.833V14.1667H127.5V0H155.833ZM14.1667 127.5V155.833H42.5V170H14.1667C10.4094 170 6.80609 168.507 4.14932 165.851C1.49256 163.194 0 159.591 0 155.833V127.5H14.1667ZM155.833 155.833V127.5H170V155.833C170 159.591 168.507 163.194 165.851 165.851C163.194 168.507 159.591 170 155.833 170H127.5V155.833H155.833Z" fill="#DBDDE1"/>
</svg>
