<svg width="105" height="105" viewBox="0 0 105 105" fill="none" xmlns="http://www.w3.org/2000/svg">
<rect x="4.55914" y="4.56012" width="95.52" height="95.52" rx="47.76" fill="#FF9249"/>
<rect x="4.55914" y="4.56012" width="95.52" height="95.52" rx="47.76" stroke="#FFDFCA" stroke-width="9.12"/>
<path d="M52.3184 80.3203C36.854 80.3203 24.3184 67.7847 24.3184 52.3203C24.3184 36.8559 36.854 24.3203 52.3184 24.3203C67.7828 24.3203 80.3184 36.8587 80.3184 52.3203C80.3184 67.7819 67.7828 80.3203 52.3184 80.3203ZM52.3184 38.3203C51.5758 38.3203 50.8636 38.6153 50.3385 39.1404C49.8134 39.6655 49.5184 40.3777 49.5184 41.1203V55.1203C49.5184 55.8629 49.8134 56.5751 50.3385 57.1002C50.8636 57.6253 51.5758 57.9203 52.3184 57.9203C53.061 57.9203 53.7732 57.6253 54.2983 57.1002C54.8234 56.5751 55.1184 55.8629 55.1184 55.1203V41.1203C55.1184 40.3777 54.8234 39.6655 54.2983 39.1404C53.7732 38.6153 53.061 38.3203 52.3184 38.3203ZM52.3184 66.3203C53.061 66.3203 53.7732 66.0253 54.2983 65.5002C54.8234 64.9751 55.1184 64.2629 55.1184 63.5203C55.1184 62.7777 54.8234 62.0655 54.2983 61.5404C53.7732 61.0153 53.061 60.7203 52.3184 60.7203C51.5758 60.7203 50.8636 61.0153 50.3385 61.5404C49.8134 62.0655 49.5184 62.7777 49.5184 63.5203C49.5184 64.2629 49.8134 64.9751 50.3385 65.5002C50.8636 66.0253 51.5758 66.3203 52.3184 66.3203Z" fill="white"/>
</svg>
