<svg width="105" height="105" viewBox="0 0 105 105" fill="none" xmlns="http://www.w3.org/2000/svg">
<rect x="4.55914" y="4.56012" width="95.52" height="95.52" rx="47.76" fill="#2E71D5"/>
<rect x="4.55914" y="4.56012" width="95.52" height="95.52" rx="47.76" stroke="#C2D5F3" stroke-width="9.12"/>
<path d="M52.3184 24.3203C59.7444 24.3203 66.8663 27.2703 72.1173 32.5213C77.3684 37.7723 80.3184 44.8943 80.3184 52.3203C80.3184 59.7464 77.3684 66.8683 72.1173 72.1193C66.8663 77.3703 59.7444 80.3203 52.3184 80.3203C44.8923 80.3203 37.7704 77.3703 32.5194 72.1193C27.2684 66.8683 24.3184 59.7464 24.3184 52.3203C24.3184 44.8943 27.2684 37.7723 32.5194 32.5213C37.7704 27.2703 44.8923 24.3203 52.3184 24.3203ZM48.8304 57.8443L42.6104 51.6203C42.3874 51.3973 42.1227 51.2204 41.8313 51.0998C41.54 50.9791 41.2277 50.917 40.9124 50.917C40.597 50.917 40.2848 50.9791 39.9934 51.0998C39.7021 51.2204 39.4373 51.3973 39.2144 51.6203C38.764 52.0707 38.511 52.6814 38.511 53.3183C38.511 53.9552 38.764 54.566 39.2144 55.0163L47.1344 62.9363C47.3567 63.1604 47.6212 63.3383 47.9127 63.4597C48.2041 63.5811 48.5167 63.6436 48.8324 63.6436C49.1481 63.6436 49.4606 63.5811 49.7521 63.4597C50.0435 63.3383 50.308 63.1604 50.5304 62.9363L66.9304 46.5323C67.1563 46.3103 67.3361 46.0457 67.4593 45.7538C67.5825 45.4619 67.6467 45.1485 67.6481 44.8317C67.6496 44.5149 67.5883 44.2009 67.4679 43.9079C67.3474 43.6149 67.1701 43.3486 66.9462 43.1245C66.7223 42.9003 66.4563 42.7227 66.1634 42.6019C65.8705 42.4811 65.5566 42.4195 65.2398 42.4206C64.923 42.4217 64.6096 42.4855 64.3175 42.6083C64.0255 42.7312 63.7607 42.9106 63.5384 43.1363L48.8304 57.8443Z" fill="white"/>
</svg>
