<svg width="105" height="105" viewBox="0 0 105 105" fill="none" xmlns="http://www.w3.org/2000/svg">
<rect x="4.55914" y="4.56012" width="95.1056" height="95.2" rx="47.5528" fill="#FF0000"/>
<rect x="4.55914" y="4.56012" width="95.1056" height="95.2" rx="47.5528" stroke="#F4E9EE" stroke-width="9.12"/>
<path fill-rule="evenodd" clip-rule="evenodd" d="M36.3833 25.1883C46.8365 24.031 57.3856 24.031 67.8388 25.1883C73.6264 25.8371 78.2958 30.3949 78.9749 36.2028C80.2136 46.8051 80.2136 57.5155 78.9749 68.1178C78.2958 73.9257 73.6264 78.4836 67.8388 79.1323C57.3856 80.2897 46.8365 80.2897 36.3833 79.1323C30.5956 78.4836 25.9263 73.9257 25.2472 68.1178C24.0088 57.5166 24.0088 46.8074 25.2472 36.2062C25.5907 33.3846 26.877 30.7616 28.8976 28.7625C30.9182 26.7633 33.5548 25.5051 36.3799 25.1917M40.1843 40.2336C40.6594 39.7591 41.3035 39.4925 41.975 39.4925C42.6465 39.4925 43.2906 39.7591 43.7657 40.2336L52.111 48.5789L60.4564 40.2336C60.6884 39.9846 60.9681 39.7849 61.2789 39.6464C61.5898 39.5079 61.9253 39.4335 62.2656 39.4275C62.6058 39.4215 62.9438 39.484 63.2593 39.6115C63.5748 39.7389 63.8615 39.9286 64.1021 40.1693C64.3427 40.4099 64.5324 40.6965 64.6599 41.012C64.7873 41.3276 64.8499 41.6655 64.8439 42.0058C64.8379 42.346 64.7634 42.6816 64.6249 42.9924C64.4864 43.3032 64.2867 43.583 64.0378 43.815L55.6924 52.1603L64.0378 60.5056C64.4854 60.986 64.7291 61.6213 64.7175 62.2778C64.7059 62.9343 64.4399 63.5607 63.9757 64.0249C63.5114 64.4892 62.885 64.7552 62.2286 64.7667C61.5721 64.7783 60.9367 64.5346 60.4564 64.087L52.111 55.7417L43.7657 64.087C43.5337 64.336 43.254 64.5357 42.9431 64.6742C42.6323 64.8127 42.2967 64.8872 41.9565 64.8932C41.6163 64.8992 41.2783 64.8366 40.9628 64.7091C40.6472 64.5817 40.3606 64.392 40.12 64.1514C39.8794 63.9107 39.6897 63.6241 39.5622 63.3086C39.4348 62.9931 39.3722 62.6551 39.3782 62.3148C39.3842 61.9746 39.4587 61.6391 39.5972 61.3282C39.7357 61.0174 39.9354 60.7376 40.1843 60.5056L48.5296 52.1603L40.1843 43.815C39.7098 43.3399 39.4432 42.6958 39.4432 42.0243C39.4432 41.3528 39.7098 40.7087 40.1843 40.2336Z" fill="white"/>
</svg>
